<?xml version="1.0" encoding="utf-8"?>
<!-- Svg Vector Icons : http://www.onlinewebfonts.com/icon -->
<!DOCTYPE svg PUBLIC "-//W3C//DTD SVG 1.1//EN" "http://www.w3.org/Graphics/SVG/1.1/DTD/svg11.dtd">
<svg version="1.1" xmlns="http://www.w3.org/2000/svg" xmlns:xlink="http://www.w3.org/1999/xlink" x="0px" y="0px" viewBox="0 0 1000 1000" enable-background="new 0 0 1000 1000" xml:space="preserve">
<metadata> Svg Vector Icons : http://www.onlinewebfonts.com/icon </metadata>
<g><path d="M787.6,945.7H212.3c-50.3,0-91.3-38.5-91.3-85.8V399.3c0-23.2,18.8-42,42-42s42,18.8,42,42v460.5c0.2-0.2,2.7,1.8,7.2,1.8h575.3c4.5,0,7.1-2.1,7.5-2.8l-0.2-459.5c0-23.2,18.8-42,42-42s42,18.8,42,42v460.5C878.9,907.2,838,945.7,787.6,945.7z"/><path d="M52,536.7c-11.6,0-23.1-4.8-31.4-14.1c-15.4-17.3-13.9-43.9,3.5-59.3L472.1,65c17.4-15.4,43.9-13.9,59.3,3.5c15.4,17.3,13.9,43.9-3.5,59.3l-448,398.3C71.9,533.2,62,536.7,52,536.7z"/><path d="M948,536.7c-9.9,0-19.9-3.5-27.9-10.6l-448-398.3c-17.3-15.4-18.9-42-3.5-59.3c15.4-17.3,42-18.9,59.3-3.5l448,398.3c17.3,15.4,18.9,42,3.5,59.3C971.1,531.9,959.6,536.7,948,536.7z"/><path d="M559.7,945.7H441.9c-49.2,0-89.1-37.6-89.1-83.9V661.3c0-46.3,40-83.9,89.1-83.9h117.9c49.2,0,89.2,37.7,89.2,83.9v200.4C648.9,908,608.9,945.7,559.7,945.7z M437.3,861c0.8,0,2.3,0.6,4.6,0.6h117.9c3.5,0,5.3-1.5,5.6-1.9l-0.5-198.1c-0.2,0.9-2-0.3-5.1-0.3H441.9c-3.5,0-5.3,1.5-5.6,1.9l0.5,198.1C436.8,861.1,437,861,437.3,861z"/></g>
</svg>