<svg xmlns="http://www.w3.org/2000/svg" version="1.1" x="0" y="0" width="2500" height="568" viewBox="-0.062 0 428.111 95.52" enable-background="new 0 0 428 95.52" xml:space="preserve">
	<path fill="#ED1D24" class="svg-alcampo-body" d="M219.5 81.64l-0.87-32.05c0-11.98-13.54-16.02-21.06-16.02 -0.76 0-1.08-0.15-6.88 0.3 -3.43 0.27-6.76 0.89-10.12 2.34 -0.46 0.19-2.23 1.02-2.23 2.09 -0.04 8.5 0.3 9.5 0.4 10.5 3.09-1.52 11.03-3.64 14.42-3.64 2.44 0 9.6 1.1 9.6 5.95 0 0.8 0 0.51-0.21 0.77l-6.92-0.01c-7.78 0-23.08 1.26-23.08 15.57 0 9 9.1 15.3 17.4 15.26 6.22 0 12.41-4.01 14.06-4.95 0.06 0.9 0.1 2.4 0 3.9h15.47v0.02h0.02V81.64zM193.6 71.41c-3.47 0-4.58-1.22-4.58-4.27 0-5.5 7.44-6.1 10.07-6.1 1.83 0 4 0.3 4 2.1 -0.03 5.93-5.19 8.23-9.49 8.24h0V71.41zM401.14 34.48c-14.42 0-27.45 7.17-27.45 24.57 0 17.4 13 24.4 27.5 24.4 12.78 0 25.75-5.66 26.86-24.48C426.89 40.1 413.9 34.5 401.1 34.48H401.14zM400.96 69.6c-6.72 0-10.2-5.91-10.2-10.69 0-5.87 4.92-10.07 10.38-10.07 5.53 0 10.4 5 10.4 10.1C411.52 65.6 406 69.6 401 69.58L400.96 69.6zM347.58 34.48c-8.93 0.16-12.63 2.5-16.43 4.9 -0.21-1.12-0.21-2.57 0.02-3.93h-17.89V95.52c0.09 0 17.57-0.12 17.6 0l-0.01-16.19c3.35 3.5 9.9 4.6 13.4 4.59 14.65 0 24.57-11.26 24.57-25.34C368.79 49 361.5 35.6 347.6 34.48H347.58zM340.86 70.19c-6.1 0-10.84-4.81-10.84-10.53 0-6.07 4.81-10.84 10.69-10.84 5.11 0 10.7 4.3 10.7 9.77 -0.02 6.31-4.71 11.61-10.51 11.6L340.86 70.19 340.86 70.19zM256.93 33.87c4.27 0 12.4 1.2 16.8 8.55 4.34-5.87 9.5-7.94 15.99-7.94 9.96 0 18.6 6 18.6 16.98v30.59h-17.96V56.7c-0.02-4.01-2.26-8.24-7.25-8.24 -3.2 0-7.46 2.74-7.46 7.8v25.75H257.7V55.65c-0.02-4.39-2.47-7.44-6.74-7.44 -4.56 0-7.98 3.72-7.98 8.43V81.99h-17.85l-0.07-47.16h16.37v5.83c0 0 4.77-5.11 11.81-6.48 2.78 0 2.97-0.28 3.67-0.31H256.93zM154.99 33.56c3.78 0 10.2 1.8 14.2 3.43 -0.43 2.48-0.9 8.34-1.57 12.7 -4.28-1.01-5.85-2.42-9.09-2.42 -6.26 0-11.9 3.09-11.9 10.38 0 9.2 7.7 11.6 13.1 11.6 2.21 0 7.15-1.48 8.77-2.12 0.38 1.6 0.4 3.5 0.7 12.43 -3.92 1.89-9.48 2.82-13.1 2.8 -14.46 0-27.47-8.85-27.47-24.72C128.59 42 141.9 33.6 155 33.56H154.99zM107.6 13.2h17.5v68.5h-17.5V13.2zM84.5 42.91h0.02c1.73-4.77 2.37-7.33 3.44-10.95 0.42-1.41 1.06-3.41 2.59-4.1 2.71-1.18 7.63-0.89 9.79-4.01 -1.85-1.51-5.54-1.46-7.3-1.5 -1.22-0.04-3.13 0.03-3.59-0.85 -3.43-6.49-10.6-6.48-15.25-6.64C74.45 14.9 68.7 0.3 68.4 0H31.12C31.23-0.02 17.24 35.91 17.26 35.9 17.24 36.2 0.5 36.2 0.2 36.03c0 0 0 1.3 0.5 2.89 0.46 1.6 2.5 4.6 3.6 6.1 -1.67 1.62-4.01 6.72-4.27 7.9 -0.15 0.7-0.07 1.25-0.07 1.25l11.06 0.02c0 0-9.61 27.16-9.59 27.27h24.32c-0.44 0.2 6.62-18.7 7.78-21.38h12.65c2.96 6.7 4.5 14.4 7.3 21.57H96.51L84.5 47.6c-4.32 6.74-9.57 11.83-14.36 12.2 -0.76 0.06-0.5-0.26-0.76-0.44C75.4 56.4 82.6 48.3 84.5 42.91zM49.38 9.45l5.34 15.5C55.06 24.8 43 31.8 42.6 32h-0.03L49.38 9.45zM74.13 78.83c-0.08 0-4.61 0-4.63 0.1 0.02-0.05-5.78-17.49-5.78-17.49 1-0.35 2.71-0.66 4.05-0.95L74.13 78.83zM64.65 27.9c-8.86 5-21.16 11.92-28.27 22.5l22.6 0.02c-0.93 1.43-2.45 2.64-3.34 3.95l7.37 24.49c-0.08 0-4.53 0-4.57 0.1l-5.65-17.35c-1.03-3.05-1.14-6.63-5.82-6.3l-24.88-0.01c1.18-5.57 3.37-6.31 3.37-6.31h-18c0.27-1.65 2.42-2.8 3.32-3.63 -0.67-1.01-3.62-2.33-3.31-4.08h31.19c0.76-0.02 6.48-4.88 10.02-7.24 3.78-2.52 10.59-5.77 11.77-6.47C60.54 27.5 61 15.2 71.5 15.62h0.01C64.28 19.5 64.8 27.6 64.7 27.89L64.65 27.9zM74.01 23.7c0-2.2 1.78-3.98 3.97-3.98C78.39 19.8 78.8 19.8 79.2 19.97h-0.02l-1.59 4.41 4.26-1.48c0.06 0.3 0.1 0.6 0.1 0.8 0 2.19-1.78 3.97-3.97 3.97C75.79 27.7 74 25.9 74 23.7H74.01z"/>
	<path fill="#01A651" class="svg-alcampo-details" d="M71.51 15.62c-7.23 3.83-6.75 11.94-6.86 12.27 -8.86 5-21.16 11.92-28.27 22.5l22.6 0.02c-0.93 1.43-2.45 2.64-3.34 3.94l7.37 24.49c-0.08 0-4.53 0-4.57 0.06l-5.65-17.35c-1.03-3.05-1.14-6.63-5.82-6.3l-24.88-0.01c1.18-5.57 3.37-6.31 3.37-6.31h-18c0.27-1.65 2.42-2.8 3.32-3.63C10.11 44.31 7.15 42.98 7.47 41.23h31.19c0.76-0.02 6.48-4.88 10.02-7.24 3.78-2.52 10.59-5.77 11.77-6.47C60.54 27.5 61 15.2 71.5 15.62H71.51zM79.18 19.97l-1.59 4.41 4.26-1.48c0.06 0.3 0.1 0.6 0.1 0.8 0 2.19-1.78 3.97-3.97 3.97 -2.19 0-3.97-1.78-3.97-3.97 0-2.2 1.78-3.98 3.97-3.98C78.39 19.8 78.8 19.8 79.2 19.97H79.18z"/>
</svg>
