<svg xmlns="http://www.w3.org/2000/svg" version="1.1" x="0px" y="0px" width="2500" height="568" viewBox="0 0 448 108.652" enable-background="new 0 0 448 108.656" xml:space="preserve">
  <path fill="#09B6EA" class="svg-caprabo" d="M83.877 59.541c-4.889 0-8.852 2.238-8.852 6.941 0 4.699 4 7.1 8.9 7.099h5.639 16.388c1.143 0 2.073-0.894 2.073-1.996V59.561H94.251L83.877 59.541zM122.807 33.018v43.904c0 5.984-5.037 10.836-11.241 10.801l-22.049-0.002h-6.899c-12.119 0-22.194-9.628-22.194-21.304 0-11.683 9.823-21.151 21.938-21.151h11.889l8.549-0.009c3 0 5.422-2.215 5.422-5.111 0-2.891-2.498-5.203-5.499-5.203l-67.99 0.128c-11.012 0-19.94 8.601-19.94 19.2 0 10.6 8.9 19.2 19.9 19.222h23.159V87.68L34.73 87.807C15.547 87.8 0 72.8 0 54.3c0.002-18.493 15.549-33.484 34.734-33.484h51.147 24.499c6.897 0 12.5 5.4 12.5 12.041L122.807 33.018zM342.314 87.822c19.178 0 34.729-14.988 34.729-33.483 0-18.489-15.552-33.482-34.729-33.482l-14.582 0.1v14.139h14.582c11.008 0 19.899 8.6 19.899 19.215 0 10.621-8.926 19.222-19.935 19.222l-17.95 0.1c-1.272 0-2.308-0.994-2.308-2.221V0h-14.657v75.762c0 6.6 5.6 12 12.5 12.039L342.314 87.822zM164.203 20.819c19.182 0 34.7 15 34.7 33.482 0 18.49-15.543 33.482-34.727 33.482l-14.58-0.125V73.521h14.58c11.008 0 19.936-8.604 19.936-19.222 0-10.614-8.927-19.221-19.938-19.221l-17.947-0.103c-1.273 0-2.304 0.994-2.304 2.22l0.002 71.458h-14.66l-0.006-75.772c0-6.647 5.592-12.042 12.49-12.042L164.203 20.819zM263.561 59.541c-4.89 0-8.854 2.238-8.854 6.941 0 4.699 4 7.1 8.9 7.099h5.64 16.392c1.141 0 2.07-0.894 2.07-1.996V59.561H273.98L263.561 59.541zM244.096 34.978h-24.108c-1.27 0-2.304 0.997-2.304 2.22v50.604h-14.663V32.881c0-6.646 5.593-12.041 12.489-12.041h28.73 45.82c6.9 0 12.5 5.4 12.5 12.041l-0.062 0.136v43.904c0 5.983-5.031 10.836-11.24 10.836l-22.05-0.002h-6.897c-12.117 0-22.192-9.627-22.192-21.303 0-11.683 9.817-21.151 21.938-21.151h11.893l8.547-0.009c2.998 0 5.42-2.215 5.42-5.111 0-2.891-2.497-5.203-5.495-5.203H244.096zM393.339 54.339c0 10.601 8.899 19.2 19.899 19.222 11.009 0 19.933-8.603 19.933-19.222 0-10.613-8.924-19.215-19.933-19.215C402.266 35.1 393.3 43.7 393.3 54.3M413.277 87.8c-19.186 0-34.729-14.987-34.729-33.483 0-18.489 15.544-33.482 34.729-33.482C432.453 20.9 448 35.9 448 54.3c0 18.5-15.5 33.5-34.7 33.5"/>
</svg>
