<svg xmlns="http://www.w3.org/2000/svg" version="1.1" x="0" y="0" width="2500" height="568" viewBox="0 0 453.9 66.27" enable-background="new 0 0 454.008 66.271" xml:space="preserve">
  <path fill="#004896" class="svg-carrefour" d="M42.43 6.44C38.08 1.9 32.9 0 26.7 0 18.31 0 10.2 3.8 5.5 10.8 1.54 16.9 0 26.1 0 33.27c0 7.9 2.4 17.8 7.8 23.66 5.8 6.3 13.8 8.6 22 8.6 12.15 0 25.11-6.35 25.11-20.03 0-5.44-2.63-9.7-8.52-9.7 -2.18 0-4.26 0.73-5.53 2.5 -1.36 1.81-1.27 3.45-1.18 5.53 0 2.72-0.09 4.72-2.27 6.71 -1.81 1.73-4.53 2.09-6.98 2.1 -11.79 0-13.05-10.24-13.05-19.58 0-8.79 1.27-20.12 12.6-20.12 2.81 0 5.7 0.6 7.7 2.8 1.81 2.1 1.7 3.4 1.6 5.98 -0.27 4.9 2 7.2 6.9 7.16 3.72 0 7.62-2.09 7.62-6.25 0-2.45-0.73-4.9-0.73-7.35 0-3.08 0.73-6.07 0.73-9.15 0-3.45-2.36-5.81-5.8-5.81C44.43 0.4 42 2.8 42.4 6.44H42.43zM78.85 26.88c0-1.81 1.45-2.09 2.99-2.09 2.99 0 6.2 1.6 6.2 5.1 0 11.97-28.1 0.81-28.1 22.3 0 9.2 7.9 13.6 16.1 13.6 5.71 0 11.24-1.73 15.5-5.8 1.54 4.3 6.2 5.8 10.3 5.8 4.26 0 9.34-1.9 9.34-6.98 0-2.63-1.63-5.08-4.53-5.08 -0.72 0-1.45 0.09-2.18 0.09 -1.81 0-1.54-2.99-1.54-4.17V32.59c0-5.62-0.45-10.78-5.8-13.96 -3.99-2.27-10.15-2.72-14.69-2.72 -6.89 0-19.76 1.54-19.76 10.88 0 4.6 3.9 7.8 8.3 7.8 3.81 0 7.8-1.9 7.8-6.07L78.85 26.88 78.85 26.88zM88.01 45.83c0 5.35-2.63 8.52-7.98 8.5 -2.63 0-5.17-1.09-5.17-4.26 0-4.8 10.52-3.44 13.15-6.25L88.01 45.83 88.01 45.83zM125.92 47.63c0 1.2 0.4 6.34-1.63 6.34 -0.91 0-1.81-0.63-2.99-0.63 -2.99 0-3.99 2.45-3.99 5.16 0 3.4 1.5 6.3 4.5 6.25 3.26-0.09 6.71-0.91 10.15-0.91 3.72 0 7.3 0.8 12.2 0.91 2.99 0 4.53-2.81 4.53-6.25 0-2.72-1-5.16-3.99-5.16 -1.18 0-2.08 0.63-2.99 0.63 -1.99 0-1.63-5.16-1.63-6.34 0-7.25 0.27-21.02 10.42-20.3 -0.54 1.09-1.09 2.27-1.09 3.53 0 3.6 2.9 5.9 6.3 5.89 4.89 0 7.8-4.26 7.8-8.88 0-6.52-5.62-11.33-11.96-11.33 -7.61 0-13.14 4.17-14.77 11.6v-6.79c0-2.08-0.18-3.9-2.81-3.9 -2.08 0.09-3.99 0.9-5.98 0.9 -1.81 0-3.62-0.81-6.25-0.9 -2.99 0-4.53 2.81-4.53 6.3 0 2.7 1 5.2 4 5.17 1.18 0 2.08-0.63 2.99-0.63 1.99 0 1.6 5.2 1.6 6.34v13.05l0.13-0.08V47.63zM175.06 47.68c0 1.2 0.4 6.34-1.63 6.34 -0.91 0-1.81-0.64-2.99-0.64 -2.99 0-3.99 2.45-3.99 5.17 0 3.4 1.5 6.3 4.5 6.25 3.26-0.09 6.71-0.91 10.15-0.91 3.72 0 7.3 0.8 12.2 0.91 2.99 0 4.53-2.81 4.53-6.25 0-2.72-1-5.17-3.99-5.17 -1.18 0-2.09 0.64-2.99 0.64 -1.99 0-1.63-5.17-1.63-6.34 0-7.25 0.27-21.02 10.42-20.3 -0.54 1.09-1.09 2.26-1.09 3.53 0 3.6 2.9 5.9 6.3 5.89 4.89 0 7.8-4.26 7.8-8.88 0-6.52-5.62-11.33-11.96-11.33 -7.61 0-13.14 4.17-14.77 11.6v-6.79c0-2.08-0.18-3.9-2.81-3.9 -2.08 0.09-3.99 0.91-5.98 0.91 -1.81 0-3.62-0.82-6.25-0.91 -2.99 0-4.53 2.81-4.53 6.3 0 2.7 1 5.2 4 5.17 1.18 0 2.09-0.63 2.99-0.63 1.99 0 1.6 5.2 1.6 6.34v13.05h0.13V47.68zM254.21 43.42c5.44 0 5.98-1.36 5.98-6.71 0-5.71-2.27-11.87-6.52-15.77 -4.08-3.81-9.88-4.98-15.32-4.98 -14.87 0-23.75 10.88-23.75 25.19 0 14.7 9.2 24.6 24.1 24.6 4.99 0 10.15-1 14.41-3.62 3.27-1.99 6.26-5.26 6.26-9.24 0-3.62-2.72-5.71-6.26-5.71 -7.07 0-6.52 7.16-14.23 7.16 -5.26 0-9.34-3.9-9.34-9.06 0-2.44 2.27-1.9 4.08-1.9h20.59V43.42zM233.81 33.4c-1 0-3.81 0.45-3.81-1.27 0-1.18 1.45-2.63 2.27-3.44 1.72-1.9 3.72-2.44 6.16-2.44 1.81 0 3.5 0.5 4.9 1.72 1 0.9 1.9 2.5 1.9 3.9 0 1.99-1.72 1.54-3.17 1.54L233.81 33.4v-0.04V33.4zM285.41 30.96c0-3.72 0.09-3.53 3.81-3.53 3.99 0 5.71-1.09 5.71-5.26 0-4.71-2.63-4.9-6.44-4.9 -2.9 0-3.08 0-3.08-2.9 0-3.17 1.18-5.17 4.53-5.17 0.73 0 1.2 0.1 1.8 0.4 -0.54 0.91-0.81 1.45-0.81 2.44 0 3.3 3.2 5.3 6.2 5.35 4.08 0 6.8-3.08 6.8-7.06 0-3.53-2.36-6.44-5.44-8.06 -2.63-1.36-6.34-1.9-9.34-1.9 -8.98 0-17.49 4.08-17.86 14 -0.09 3.26-0.81 2.99-3.62 2.99 -3.72 0-5.07 1.63-5.07 5.35 0 4 2 4.8 5.5 4.8 3.27 0 3.1 0.4 3.1 3.54v16.58c0 1.2 0.4 6.35-1.63 6.35 -0.91 0-1.81-0.63-2.99-0.63 -2.99 0-3.99 2.45-3.99 5.17 0 3.4 1.5 6.3 5 6.25 2.99-0.09 6.44-0.91 9.88-0.91 3.72 0 7.3 0.8 11.2 0.91 3.81 0 5.35-2.81 5.35-6.25 0-2.72-1-5.17-3.99-5.17 -1.18 0-2.08 0.64-2.99 0.64 -1.99 0-1.63-5.17-1.63-6.35V30.96H285.41zM320.88 16.1c-15.68 0-24.11 9.52-24.11 24.92 0 15.5 8.4 24.9 24.2 24.9 15.86 0 23.48-10.42 23.48-25.46C344.44 25.9 335.7 16.1 320.9 16.1H320.88zM320.79 27.5c7.34 0 8.7 7.7 8.7 13.5 0 3.08-0.54 6.8-1.99 9.6 -1.45 2.99-4.17 3.9-7.34 3.9 -6.71 0-8.43-8.16-8.43-13.5 0-5.89 1.72-13.5 9.06-13.41l0-0.08 0 0V27.5zM352.5 46.8c0 4.53-0.36 9.9 2.3 13.77 2.72 4 8.1 5.7 12.7 5.7 6.07 0 12.6-2.72 16.13-7.7v1.81c0 1.9-0.18 4.7 3.3 4.8 1.72-0.09 3.72-0.91 5.71-0.91 2.09 0 4.2 0.8 6.4 0.91 3.81 0 5.35-2.81 5.35-6.25 0-2.72-1-5.16-3.98-5.16 -1.18 0-2.08 0.63-2.99 0.6 -1.99 0-1.63-5.16-1.63-6.34V22.33c0-2.35 0.27-4.44-2.9-4.44 -2.27 0.09-4.35 0.91-6.43 0.9 -1.99 0-3.99-0.82-5.71-0.91 -6.25 0-7.79 2.81-7.79 6.25 0 2.7 1 5.2 4 5.2 1.18 0 2.08-0.63 2.99-0.63 1.99 0 1.6 5.2 1.6 6.34v6.16c0 3.35-0.18 6.43-2.08 9.3 -1.45 2.26-3.9 3.62-6.52 3.62 -1.99 0-4.08-1.09-5.07-2.81 -1.09-1.81-1.09-4.98-1.09-6.89v-21.56c0-2.27 0.64-4.98-2.35-4.98 -2.27 0.09-4.35 0.91-6.44 0.91 -1.99 0-3.98-0.82-5.71-0.91 -6.8 0-8.34 2.81-8.34 6.25 0 2.7 1 5.2 4 5.16 1.18 0 2.08-0.63 2.99-0.63 1.99 0 1.6 5.2 1.6 6.34v11.78H352.5zM416.31 47.72c0 1.2 0.4 6.34-1.63 6.34 -0.91 0-1.81-0.63-2.99-0.63 -2.99 0-3.99 2.44-3.99 5.17 0 3.4 1.5 6.3 4.5 6.25 3.26-0.09 6.71-0.91 10.15-0.91 3.72 0 7.3 0.8 12.2 0.91 2.99 0 4.53-2.81 4.53-6.25 0-2.72-0.99-5.17-3.98-5.17 -1.18 0-2.08 0.64-2.99 0.64 -1.99 0-1.63-5.17-1.63-6.34 0-7.25 0.27-21.02 10.42-20.3 -0.54 1.09-1.09 2.26-1.09 3.53 0 3.6 2.9 5.9 6.3 5.89 4.9 0 7.79-4.26 7.79-8.88 0-6.52-5.62-11.33-11.96-11.33 -7.61 0-13.14 4.17-14.77 11.6v-6.8c0-2.09-0.18-3.9-2.81-3.9 -2.09 0.09-3.99 0.91-5.98 0.91 -1.81 0-3.62-0.81-6.25-0.91 -2.99 0-4.53 2.81-4.53 6.3 0 2.7 1 5.2 4 5.17 1.18 0 2.08-0.63 2.99-0.63 2 0 1.6 5.2 1.6 6.34v13H416.31z"/>
</svg>
