<svg xmlns="http://www.w3.org/2000/svg" version="1.1" x="0" y="0" width="2500" height="568" viewBox="0 0 329.55 79.43" enable-background="new 0 0 329.547 79.432" xml:space="preserve">
  <path fill="#2A2568" class="svg-condis" d="M56.55 14.63c-2.15-0.22-4.32-0.33-6.5-0.33 -10.45 0-18.57 2.99-24.35 9 -5.78 5.99-8.67 13.03-8.67 21.12 0 6.3 2 11.4 6 15.11 3.99 3.8 9.4 5.6 16.1 5.6 8.31 0 17.7-3.03 28.16-9.08l-2.38 17.27c-9.2 4.07-18.27 6.11-27.22 6.11 -11.23 0-20.32-3.27-27.27-9.81C3.47 63.1 0 54.5 0 44.01c0-12.9 4.69-23.46 14.08-31.68C23.46 4.1 35.6 0 50.5 0 57 0 64 0.9 71.5 2.83l0 0 -2.71 14.31C64.75 15.9 60.7 15.1 56.5 14.6M105.12 26.1c7.49 0 13.6 2.2 18.4 6.72 4.76 4.5 7.1 10.3 7.1 17.5 0 8.19-2.81 15.08-8.44 20.69 -5.62 5.6-12.55 8.41-20.77 8.41 -7.3 0-13.45-2.4-18.45-7.19 -5-4.8-7.5-10.66-7.5-17.59 0-7.78 2.91-14.49 8.74-20.11C90.04 28.9 97 26.1 105.1 26.1L105.12 26.1zM101.56 66.95c3.86 0 7.02-1.77 9.48-5.33 2.46-3.55 3.7-7.46 3.7-11.73 0-3.38-0.94-6.11-2.81-8.19s-4.36-3.12-7.44-3.12c-4.08 0-7.28 1.83-9.62 5.49 -2.33 3.66-3.5 7.48-3.5 11.4 0 3.5 1 6.2 3.1 8.31C96.5 65.9 98.9 67 101.6 66.95H101.56zM161.25 26.9l-0.84 5.91c5.71-4.47 11.56-6.7 17.53-6.7 4.5 0 7.9 1.4 10.3 4.2 2.4 2.8 3.6 6.7 3.6 11.66 0 1.47-0.11 3.02-0.33 4.63l-4.48 31.86h-15.33l4.32-30.68c0.15-0.89 0.22-1.77 0.22-2.65 0-5.09-1.59-7.63-4.76-7.63 -3.65 0-7.95 2.64-12.9 7.93l-4.69 33.04H138.6l7.31-51.52h15.34V26.9zM259.98 1.02l-10.8 76.73c-6.55 1.12-12.47 1.68-17.76 1.68 -9.14 0-16.4-2.23-21.78-6.69 -5.38-4.46-8.07-10.45-8.07-17.98 0-7.93 2.89-14.69 8.67-20.27 5.78-5.59 13.54-8.38 23.28-8.38 1.59 0 4.1 0.2 7.5 0.56l3.59-25.63h15.39V1.02H259.98zM235.4 66.4l3.75-26.63c-1.33-0.18-2.62-0.27-3.87-0.27 -5.45 0-9.79 1.48-12.99 4.44s-4.81 6.61-4.81 10.95c0 3.7 1.2 6.7 3.7 8.8s5.8 3.3 10 3.26c1.13 0.07 2.53-0.13 4.23-0.53H235.4zM271.25 12.57c0-2.18 0.77-4.04 2.32-5.59 1.55-1.55 3.41-2.33 5.59-2.33 2.22 0 4.1 0.8 5.6 2.33 1.55 1.5 2.3 3.4 2.3 5.59 0 2.22-0.77 4.1-2.32 5.6 -1.55 1.55-3.43 2.33-5.65 2.33 -2.18 0-4.04-0.77-5.59-2.33C272.02 16.7 271.2 14.8 271.2 12.6L271.25 12.57zM285.1 26.9l-7.26 51.52H262.51l7.26-51.52H285.1L285.1 26.9zM329.55 30.75l-1.22 12.14c-2.66-1.33-5.44-2.38-8.32-3.15 -2.88-0.77-5.08-1.16-6.6-1.16 -2.25 0-3.38 0.75-3.38 2.25 0.01 1.5 2 3.8 6.1 6.79 4.65 3.5 7.7 6.4 9 8.7 1.35 2.3 2 4.6 2 6.97 0 4.65-1.8 8.48-5.41 11.51 -3.6 3.02-8.24 4.54-13.9 4.5 -5.88 0-11.81-1.56-17.81-4.67l2.1-11.44c6.28 2.4 11 3.6 14.1 3.63 3.36 0 5.04-0.94 5.04-2.81 0.02-1.58-2.2-4.05-6.69-7.39s-7.37-6.02-8.64-8.03c-1.27-2.02-1.91-3.95-1.91-5.8 0-4.92 1.8-8.93 5.4-12.04 3.6-3.1 8.23-4.66 13.88-4.66C318.67 26.1 324.1 27.7 329.5 30.8L329.55 30.75z"/>
</svg>
