<?xml version="1.0" encoding="UTF-8"?>
<svg xmlns="http://www.w3.org/2000/svg" xmlns:xlink="http://www.w3.org/1999/xlink" width="131pt" height="71pt" viewBox="0 0 149 89" version="1.1">
<g id="surface1">
<path style=" stroke:none;fill-rule:nonzero;fill:rgb(100%,100%,100%);fill-opacity:1;" d="M 77.492188 81.898438 C 78.027344 81.917969 78.800781 81.839844 79.019531 82.476562 C 79.214844 83.679688 77.976562 84.488281 76.914062 84.523438 C 77.101562 83.644531 77.316406 82.777344 77.492188 81.898438 Z M 77.492188 81.898438 "/>
<path style=" stroke:none;fill-rule:nonzero;fill:rgb(100%,100%,100%);fill-opacity:1;" d="M 61.28125 84.789062 C 61.488281 83.851562 61.710938 82.917969 61.90625 81.980469 C 62.40625 81.996094 63.03125 81.921875 63.359375 82.390625 C 63.738281 82.953125 63.386719 83.6875 62.96875 84.121094 C 62.535156 84.589844 61.878906 84.6875 61.28125 84.789062 Z M 61.28125 84.789062 "/>
<path style=" stroke:none;fill-rule:nonzero;fill:rgb(100%,100%,100%);fill-opacity:1;" d="M 112.757812 84.953125 C 113.199219 84.171875 113.609375 83.371094 114.007812 82.570312 C 114.105469 83.382812 114.210938 84.195312 114.328125 85 C 113.800781 84.988281 113.28125 84.976562 112.757812 84.953125 Z M 112.757812 84.953125 "/>
<path style=" stroke:none;fill-rule:nonzero;fill:rgb(100%,100%,100%);fill-opacity:1;" d="M 85.308594 84.957031 C 85.742188 84.171875 86.160156 83.378906 86.570312 82.582031 C 86.652344 83.394531 86.757812 84.199219 86.882812 85.003906 C 86.355469 84.988281 85.832031 84.976562 85.308594 84.957031 Z M 85.308594 84.957031 "/>
<path style=" stroke:none;fill-rule:nonzero;fill:rgb(97.254902%,60.784314%,20.392157%);fill-opacity:1;" d="M 83.304688 0.164062 C 86.792969 -0.234375 90.449219 0.046875 93.664062 1.539062 C 96.746094 2.953125 99.191406 5.777344 99.980469 9.113281 C 100.839844 12.679688 100.277344 16.496094 98.757812 19.804688 C 96.996094 23.679688 93.691406 26.707031 89.902344 28.527344 C 83.203125 31.675781 75.191406 31.464844 68.457031 28.519531 C 67.992188 28.335938 67.488281 27.898438 67.640625 27.335938 C 67.996094 25.71875 68.714844 24.210938 69.300781 22.671875 C 69.582031 22.113281 69.777344 21.371094 70.390625 21.09375 C 71.140625 21.027344 71.835938 21.410156 72.53125 21.632812 C 75.148438 22.640625 78.074219 23.125 80.824219 22.394531 C 83.65625 21.660156 86.042969 19.417969 86.945312 16.621094 C 87.617188 14.636719 87.722656 12.289062 86.578125 10.457031 C 85.640625 8.953125 83.945312 8.085938 82.222656 7.878906 C 79.28125 7.476562 76.386719 8.496094 73.738281 9.683594 C 72.941406 10.011719 72.207031 10.488281 71.386719 10.746094 C 70.863281 10.59375 70.929688 9.953125 71.003906 9.535156 C 71.28125 7.980469 71.6875 6.445312 72.246094 4.96875 C 72.503906 4.3125 72.792969 3.617188 73.378906 3.191406 C 74.371094 2.4375 75.5625 2.019531 76.730469 1.621094 C 78.867188 0.917969 81.074219 0.441406 83.304688 0.164062 Z M 83.304688 0.164062 "/>
<path style=" stroke:none;fill-rule:nonzero;fill:rgb(97.254902%,60.784314%,20.392157%);fill-opacity:1;" d="M 12.152344 54.871094 C 15.476562 54.402344 18.910156 54.910156 22.003906 56.195312 C 22.316406 56.339844 22.679688 56.503906 22.796875 56.863281 C 22.75 57.605469 22.429688 58.289062 22.179688 58.980469 C 21.878906 59.710938 21.640625 60.484375 21.21875 61.160156 C 21.085938 61.398438 20.800781 61.578125 20.527344 61.457031 C 19.65625 61.253906 18.851562 60.84375 17.984375 60.640625 C 16.03125 60.136719 13.828125 60.144531 12.054688 61.21875 C 9.867188 62.492188 8.597656 65.234375 9.136719 67.730469 C 9.488281 69.328125 10.976562 70.453125 12.542969 70.632812 C 15.175781 71.019531 17.652344 69.808594 19.96875 68.726562 C 20.242188 68.492188 20.535156 68.898438 20.460938 69.164062 C 20.398438 70.128906 20.101562 71.058594 19.824219 71.980469 C 19.558594 72.761719 19.296875 73.65625 18.535156 74.097656 C 17.144531 74.929688 15.542969 75.308594 13.980469 75.671875 C 10.996094 76.335938 7.769531 76.394531 4.914062 75.171875 C 2.675781 74.222656 0.875 72.234375 0.292969 69.84375 C -0.449219 66.824219 0.265625 63.546875 1.910156 60.945312 C 4.144531 57.449219 8.121094 55.371094 12.152344 54.871094 Z M 12.152344 54.871094 "/>
<path style=" stroke:none;fill-rule:nonzero;fill:rgb(97.254902%,60.784314%,20.392157%);fill-opacity:1;" d="M 80.347656 54.863281 C 82.070312 54.585938 83.824219 54.550781 85.5625 54.625 C 86.121094 54.65625 86.960938 54.753906 86.980469 55.492188 C 86.925781 56.75 86.644531 58.035156 86.0625 59.15625 C 85.828125 59.640625 85.226562 59.519531 84.792969 59.5 C 83.625 59.386719 82.355469 59.128906 81.25 59.6875 C 80.625 60.003906 80.128906 60.867188 80.582031 61.515625 C 81.773438 63.261719 83.664062 64.488281 84.507812 66.480469 C 85.257812 68.144531 84.933594 70.09375 84.113281 71.667969 C 82.871094 74.007812 80.527344 75.675781 77.964844 76.226562 C 76.050781 76.640625 74.070312 76.539062 72.140625 76.324219 C 71.078125 76.160156 69.976562 76.015625 69.007812 75.527344 C 68.582031 75.371094 68.710938 74.871094 68.792969 74.535156 C 69.070312 73.527344 69.425781 72.535156 69.816406 71.570312 C 69.949219 71.261719 70.144531 70.792969 70.5625 70.886719 C 72.167969 71.136719 73.777344 71.847656 75.417969 71.480469 C 76.125 71.371094 76.761719 70.46875 76.253906 69.832031 C 75.066406 68.113281 73.367188 66.742188 72.597656 64.753906 C 71.457031 62.101562 72.59375 58.878906 74.789062 57.144531 C 76.375 55.863281 78.359375 55.191406 80.347656 54.863281 Z M 80.347656 54.863281 "/>
<path style=" stroke:none;fill-rule:nonzero;fill:rgb(97.254902%,60.784314%,20.392157%);fill-opacity:1;" d="M 33.234375 55.03125 C 36.113281 54.648438 39.179688 54.601562 41.894531 55.785156 C 43.914062 56.652344 45.507812 58.488281 45.945312 60.667969 C 46.457031 63.289062 45.898438 66.023438 44.839844 68.441406 C 43.585938 71.285156 41.242188 73.597656 38.421875 74.863281 C 35.425781 76.199219 32.027344 76.507812 28.804688 76.011719 C 26.570312 75.664062 24.328125 74.773438 22.78125 73.0625 C 21.605469 71.804688 20.925781 70.121094 20.808594 68.402344 C 20.539062 64.851562 22.003906 61.214844 24.644531 58.84375 C 27.003906 56.675781 30.097656 55.472656 33.234375 55.03125 M 34.425781 60 C 33.203125 60.25 32.113281 61.023438 31.390625 62.042969 C 30.550781 63.28125 30.1875 64.773438 29.921875 66.230469 C 29.789062 67.359375 29.671875 68.628906 30.328125 69.625 C 30.886719 70.476562 31.988281 70.722656 32.945312 70.652344 C 34.277344 70.589844 35.535156 69.886719 36.351562 68.835938 C 37.515625 67.363281 38.003906 65.464844 38.164062 63.617188 C 38.226562 62.5625 38.140625 61.359375 37.355469 60.578125 C 36.582031 59.839844 35.414062 59.8125 34.425781 60 Z M 34.425781 60 "/>
<path style=" stroke:none;fill-rule:nonzero;fill:rgb(97.254902%,60.784314%,20.392157%);fill-opacity:1;" d="M 62.160156 54.925781 C 63.878906 54.652344 65.765625 54.707031 67.277344 55.664062 C 68.78125 56.605469 69.695312 58.296875 69.902344 60.042969 C 70.050781 61.328125 69.964844 62.632812 69.816406 63.914062 C 69.433594 66.851562 68.855469 69.757812 68.175781 72.636719 C 67.976562 73.394531 67.964844 74.285156 67.410156 74.890625 C 66.738281 75.375 65.851562 75.289062 65.070312 75.355469 C 63.425781 75.339844 61.78125 75.421875 60.136719 75.4375 C 59.742188 75.484375 59.359375 75.148438 59.398438 74.742188 C 59.421875 73.898438 59.648438 73.082031 59.816406 72.257812 C 60.347656 69.800781 60.796875 67.324219 61.210938 64.84375 C 61.390625 63.550781 61.574219 62.199219 61.203125 60.925781 C 60.988281 60.195312 60.335938 59.621094 59.574219 59.554688 C 58.441406 59.449219 57.304688 59.75 56.246094 60.136719 C 55.457031 64.675781 54.644531 69.222656 53.871094 73.765625 C 53.742188 74.273438 53.574219 74.910156 53.007812 75.089844 C 52.386719 75.300781 51.71875 75.25 51.074219 75.269531 C 49.566406 75.25 48.0625 75.417969 46.550781 75.355469 C 46.117188 75.316406 45.605469 75.308594 45.316406 74.929688 C 45.152344 74.421875 45.320312 73.894531 45.394531 73.390625 C 45.839844 71.320312 46.121094 69.222656 46.523438 67.144531 C 47.03125 64.449219 47.546875 61.753906 48.019531 59.050781 C 48.15625 58.351562 48.28125 57.628906 48.625 57 C 48.867188 56.535156 49.382812 56.273438 49.894531 56.269531 C 52.1875 56.253906 54.511719 56.644531 56.785156 56.171875 C 58.589844 55.816406 60.339844 55.203125 62.160156 54.925781 Z M 62.160156 54.925781 "/>
<path style=" stroke:none;fill-rule:nonzero;fill:rgb(97.254902%,60.784314%,20.392157%);fill-opacity:1;" d="M 126.53125 55.078125 C 128.148438 54.792969 129.984375 54.820312 131.375 55.820312 C 132.601562 56.71875 133.136719 58.265625 133.296875 59.730469 C 135.039062 57.691406 137.117188 55.730469 139.777344 55.050781 C 141.710938 54.558594 144.03125 54.808594 145.472656 56.320312 C 146.675781 57.558594 146.941406 59.402344 146.828125 61.066406 C 146.621094 64.4375 145.707031 67.707031 144.898438 70.964844 C 146.203125 70.527344 147.394531 69.808594 148.710938 69.414062 C 148.960938 70.230469 149.003906 71.109375 148.855469 71.953125 C 148.710938 72.714844 147.921875 73.050781 147.3125 73.375 C 144.625 74.6875 141.828125 75.847656 138.890625 76.464844 C 138.121094 76.570312 137.164062 76.816406 136.539062 76.207031 C 135.898438 75.457031 136.121094 74.382812 136.328125 73.507812 C 137.265625 70.0625 138.300781 66.636719 139.027344 63.132812 C 139.167969 62.285156 139.359375 61.234375 138.648438 60.582031 C 137.882812 59.832031 136.65625 60.109375 135.886719 60.699219 C 134.367188 61.820312 133.652344 63.671875 133.101562 65.414062 C 132.289062 68.015625 131.507812 70.640625 131.074219 73.339844 C 130.976562 73.765625 130.882812 74.265625 130.507812 74.535156 C 130.03125 74.796875 129.453125 74.757812 128.929688 74.777344 C 127.417969 74.773438 125.902344 74.871094 124.394531 74.859375 C 123.941406 74.855469 123.359375 74.8125 123.171875 74.316406 C 122.996094 73.6875 123.195312 73.039062 123.332031 72.425781 C 124.144531 69.320312 124.902344 66.199219 125.519531 63.050781 C 125.628906 62.355469 125.835938 61.59375 125.476562 60.929688 C 125.179688 60.3125 124.457031 60.011719 123.796875 60.140625 C 122.265625 60.328125 121.261719 61.699219 120.609375 62.980469 C 118.996094 66.226562 118.441406 69.855469 117.460938 73.316406 C 117.347656 73.675781 117.25 74.125 116.863281 74.285156 C 116.320312 74.515625 115.710938 74.460938 115.136719 74.488281 C 113.625 74.476562 112.113281 74.625 110.605469 74.570312 C 110.1875 74.5625 109.691406 74.386719 109.601562 73.929688 C 109.554688 73.164062 109.773438 72.417969 109.902344 71.671875 C 110.847656 66.734375 111.710938 61.777344 112.691406 56.84375 C 112.796875 56.46875 112.886719 56.015625 113.246094 55.796875 C 113.707031 55.566406 114.242188 55.613281 114.746094 55.59375 C 116.390625 55.578125 118.039062 55.398438 119.683594 55.4375 C 120.035156 55.402344 120.4375 55.675781 120.359375 56.070312 C 120.210938 57.402344 119.960938 58.730469 119.714844 60.046875 C 121.492188 57.847656 123.675781 55.6875 126.53125 55.078125 Z M 126.53125 55.078125 "/>
<path style=" stroke:none;fill-rule:nonzero;fill:rgb(97.254902%,60.784314%,20.392157%);fill-opacity:1;" d="M 103.019531 55.605469 C 103.527344 55.332031 104.136719 55.441406 104.695312 55.425781 C 106.535156 55.488281 108.378906 55.417969 110.214844 55.480469 C 110.972656 55.445312 110.863281 56.347656 110.773438 56.851562 C 110.011719 61.652344 109.09375 66.417969 108.152344 71.1875 C 107.929688 72.113281 107.761719 73.097656 107.214844 73.894531 C 106.867188 74.386719 106.234375 74.511719 105.675781 74.460938 C 103.363281 74.332031 101.011719 74.269531 98.757812 74.851562 C 96.628906 75.347656 94.503906 76.171875 92.285156 75.957031 C 90.632812 75.808594 89.042969 74.972656 88.046875 73.628906 C 87.160156 72.476562 86.75 71.027344 86.628906 69.59375 C 86.378906 67.339844 86.640625 65.070312 87.050781 62.855469 C 87.417969 60.859375 87.792969 58.855469 88.296875 56.890625 C 88.433594 56.484375 88.492188 55.914062 88.972656 55.765625 C 89.585938 55.546875 90.253906 55.605469 90.894531 55.621094 C 92.464844 55.6875 94.046875 55.617188 95.621094 55.652344 C 95.996094 55.6875 96.484375 55.699219 96.683594 56.085938 C 96.773438 56.402344 96.65625 56.730469 96.597656 57.046875 C 96.066406 59.152344 95.714844 61.304688 95.355469 63.449219 C 95.097656 65.203125 94.808594 66.984375 94.960938 68.769531 C 95.03125 69.777344 95.578125 70.824219 96.546875 71.207031 C 97.582031 71.597656 98.710938 71.332031 99.710938 70.949219 C 100.300781 68.046875 100.902344 65.144531 101.476562 62.238281 C 101.828125 60.453125 102.21875 58.679688 102.425781 56.875 C 102.496094 56.410156 102.566406 55.855469 103.019531 55.605469 Z M 103.019531 55.605469 "/>
<path style=" stroke:none;fill-rule:nonzero;fill:rgb(93.72549%,25.490196%,21.960784%);fill-opacity:1;" d="M 66.355469 11.441406 C 70.945312 10.875 75.648438 11.652344 79.914062 13.410156 C 80.390625 13.613281 80.980469 13.867188 81.078125 14.445312 C 80.976562 15.519531 80.5 16.503906 80.140625 17.507812 C 79.703125 18.574219 79.367188 19.699219 78.726562 20.664062 C 78.289062 21.28125 77.453125 20.878906 76.878906 20.707031 C 74.335938 19.679688 71.546875 19.015625 68.804688 19.480469 C 66.011719 19.90625 63.46875 21.738281 62.226562 24.292969 C 61.324219 26.152344 60.933594 28.347656 61.53125 30.363281 C 62.046875 32.085938 63.511719 33.429688 65.214844 33.921875 C 66.898438 34.417969 68.707031 34.34375 70.40625 33.988281 C 72.675781 33.488281 74.789062 32.484375 76.871094 31.480469 C 77.167969 31.292969 77.625 31.316406 77.703125 31.722656 C 77.777344 32.773438 77.410156 33.789062 77.183594 34.800781 C 76.808594 36.050781 76.5 37.371094 75.746094 38.457031 C 74.707031 39.566406 73.1875 40.015625 71.796875 40.511719 C 67.230469 41.925781 62.273438 42.699219 57.574219 41.457031 C 54.582031 40.707031 51.789062 38.921875 50.125 36.273438 C 48.503906 33.769531 48.078125 30.65625 48.410156 27.730469 C 48.832031 23.839844 50.605469 20.105469 53.367188 17.355469 C 56.828125 13.910156 61.550781 11.941406 66.355469 11.441406 Z M 66.355469 11.441406 "/>
<path style=" stroke:none;fill-rule:nonzero;fill:rgb(93.72549%,25.490196%,21.960784%);fill-opacity:1;" d="M 33.53125 81.441406 C 35.140625 80.308594 37.265625 80.0625 39.132812 80.59375 C 38.996094 81.09375 38.863281 81.59375 38.714844 82.09375 C 37.621094 81.957031 36.441406 81.828125 35.425781 82.371094 C 34.195312 82.988281 33.257812 84.378906 33.449219 85.800781 C 33.542969 86.488281 34.238281 87.007812 34.921875 86.894531 C 36.011719 86.75 36.976562 86.171875 37.945312 85.683594 C 38.09375 86.175781 38.378906 86.671875 38.304688 87.203125 C 37.550781 87.730469 36.667969 88.042969 35.796875 88.320312 C 34.554688 88.703125 33.097656 88.546875 32.082031 87.6875 C 31.367188 87.105469 31.089844 86.125 31.164062 85.230469 C 31.296875 83.679688 32.28125 82.308594 33.53125 81.441406 Z M 33.53125 81.441406 "/>
<path style=" stroke:none;fill-rule:nonzero;fill:rgb(93.72549%,25.490196%,21.960784%);fill-opacity:1;" d="M 43.480469 80.402344 C 44.417969 80.179688 45.4375 80.125 46.335938 80.511719 C 47.074219 80.816406 47.597656 81.511719 47.796875 82.277344 C 48.175781 84.027344 47.65625 85.980469 46.347656 87.222656 C 44.894531 88.652344 42.332031 89.074219 40.667969 87.765625 C 39.234375 86.507812 39.3125 84.195312 40.25 82.664062 C 40.953125 81.503906 42.179688 80.71875 43.480469 80.402344 M 43.839844 81.761719 C 42.601562 82.324219 41.960938 83.730469 41.816406 85.03125 C 41.714844 85.765625 41.847656 86.742188 42.625 87.050781 C 43.4375 87.332031 44.292969 86.863281 44.804688 86.246094 C 45.621094 85.269531 45.988281 83.910156 45.777344 82.65625 C 45.640625 81.78125 44.582031 81.402344 43.839844 81.761719 Z M 43.839844 81.761719 "/>
<path style=" stroke:none;fill-rule:nonzero;fill:rgb(93.72549%,25.490196%,21.960784%);fill-opacity:1;" d="M 52.75 80.425781 C 53.898438 80.140625 55.253906 80.082031 56.242188 80.835938 C 57.203125 81.574219 57.390625 82.90625 57.25 84.039062 C 57.0625 86.101562 55.507812 88.011719 53.460938 88.429688 C 52.066406 88.738281 50.367188 88.457031 49.519531 87.195312 C 48.664062 85.871094 48.808594 84.058594 49.574219 82.726562 C 50.265625 81.5625 51.460938 80.765625 52.75 80.425781 M 53.140625 81.785156 C 51.617188 82.582031 50.921875 84.566406 51.25 86.203125 C 51.464844 87.113281 52.609375 87.367188 53.34375 86.910156 C 54.789062 86.105469 55.367188 84.25 55.144531 82.679688 C 55.023438 81.761719 53.894531 81.382812 53.140625 81.785156 Z M 53.140625 81.785156 "/>
<path style=" stroke:none;fill-rule:nonzero;fill:rgb(93.72549%,25.490196%,21.960784%);fill-opacity:1;" d="M 86.035156 80.953125 C 86.488281 80.25 87.410156 80.285156 88.144531 80.183594 C 88.667969 82.796875 89.070312 85.4375 89.449219 88.078125 C 88.761719 88.273438 88.050781 88.363281 87.335938 88.398438 C 87.242188 87.75 87.152344 87.105469 87.0625 86.457031 C 86.230469 86.449219 85.402344 86.402344 84.574219 86.371094 C 84.1875 87.042969 83.957031 87.839844 83.414062 88.398438 C 82.820312 88.351562 82.242188 88.207031 81.667969 88.0625 C 82.296875 86.804688 83.101562 85.648438 83.808594 84.429688 C 84.523438 83.253906 85.210938 82.058594 86.035156 80.953125 M 85.308594 84.957031 C 85.832031 84.976562 86.355469 84.988281 86.882812 85.003906 C 86.757812 84.199219 86.652344 83.394531 86.570312 82.582031 C 86.160156 83.378906 85.742188 84.171875 85.308594 84.957031 Z M 85.308594 84.957031 "/>
<path style=" stroke:none;fill-rule:nonzero;fill:rgb(93.72549%,25.490196%,21.960784%);fill-opacity:1;" d="M 108.636719 80.289062 C 109.265625 80.367188 109.882812 80.488281 110.496094 80.65625 C 109.371094 82.707031 108.15625 84.707031 106.9375 86.703125 C 106.414062 87.703125 105.464844 88.734375 104.230469 88.511719 C 103.921875 87.789062 103.875 86.996094 103.726562 86.234375 C 103.421875 84.371094 103.046875 82.519531 102.835938 80.644531 C 103.539062 80.507812 104.25 80.386719 104.957031 80.292969 C 105.3125 82.128906 105.496094 83.992188 105.691406 85.847656 C 106.683594 84.003906 107.5625 82.089844 108.636719 80.289062 Z M 108.636719 80.289062 "/>
<path style=" stroke:none;fill-rule:nonzero;fill:rgb(93.72549%,25.490196%,21.960784%);fill-opacity:1;" d="M 113.558594 80.863281 C 114.03125 80.242188 114.886719 80.304688 115.578125 80.167969 C 116.132812 82.785156 116.519531 85.433594 116.898438 88.082031 C 116.207031 88.261719 115.507812 88.375 114.796875 88.394531 C 114.6875 87.753906 114.601562 87.109375 114.523438 86.464844 C 113.683594 86.445312 112.851562 86.402344 112.023438 86.375 C 111.675781 87.058594 111.328125 87.738281 110.960938 88.410156 C 110.332031 88.34375 109.710938 88.210938 109.105469 88.054688 C 109.855469 86.660156 110.734375 85.347656 111.527344 83.980469 C 112.171875 82.921875 112.796875 81.839844 113.558594 80.863281 M 112.757812 84.953125 C 113.28125 84.976562 113.800781 84.988281 114.328125 85 C 114.210938 84.195312 114.105469 83.382812 114.007812 82.570312 C 113.609375 83.371094 113.199219 84.171875 112.757812 84.953125 Z M 112.757812 84.953125 "/>
<path style=" stroke:none;fill-rule:nonzero;fill:rgb(93.72549%,25.490196%,21.960784%);fill-opacity:1;" d="M 60.039062 80.609375 C 61.390625 80.5625 62.765625 80.386719 64.101562 80.667969 C 65.328125 80.957031 65.898438 82.464844 65.410156 83.578125 C 64.730469 85.335938 62.792969 86.269531 60.988281 86.167969 C 60.8125 86.820312 60.769531 87.519531 60.492188 88.136719 C 59.835938 88.339844 59.078125 88.292969 58.410156 88.152344 C 58.410156 87.289062 58.699219 86.464844 58.847656 85.621094 C 59.226562 83.949219 59.503906 82.246094 60.039062 80.609375 M 61.28125 84.789062 C 61.878906 84.6875 62.535156 84.589844 62.96875 84.121094 C 63.386719 83.6875 63.738281 82.953125 63.359375 82.390625 C 63.03125 81.921875 62.40625 81.996094 61.90625 81.980469 C 61.710938 82.917969 61.488281 83.851562 61.28125 84.789062 Z M 61.28125 84.789062 "/>
<path style=" stroke:none;fill-rule:nonzero;fill:rgb(93.72549%,25.490196%,21.960784%);fill-opacity:1;" d="M 75.636719 80.609375 C 76.871094 80.457031 78.140625 80.457031 79.375 80.621094 C 80.292969 80.742188 81.15625 81.492188 81.160156 82.46875 C 81.25 83.796875 80.21875 84.859375 79.089844 85.355469 C 79.898438 86.121094 80.636719 86.964844 81.34375 87.828125 C 80.71875 88.09375 80.082031 88.335938 79.445312 88.558594 C 78.710938 87.667969 78.019531 86.742188 77.253906 85.882812 C 77.035156 85.90625 76.8125 85.933594 76.59375 85.957031 C 76.429688 86.726562 76.296875 87.507812 76.035156 88.253906 C 75.316406 88.257812 74.585938 88.269531 73.871094 88.164062 C 74.316406 85.929688 74.820312 83.703125 75.320312 81.476562 C 75.394531 81.179688 75.457031 80.867188 75.636719 80.609375 M 77.492188 81.898438 C 77.316406 82.777344 77.101562 83.644531 76.914062 84.523438 C 77.976562 84.488281 79.214844 83.679688 79.019531 82.476562 C 78.800781 81.839844 78.027344 81.917969 77.492188 81.898438 Z M 77.492188 81.898438 "/>
<path style=" stroke:none;fill-rule:nonzero;fill:rgb(93.72549%,25.490196%,21.960784%);fill-opacity:1;" d="M 67.8125 81.667969 C 67.886719 81.308594 68.003906 80.960938 68.132812 80.621094 C 69.753906 80.652344 71.375 80.578125 72.992188 80.628906 C 72.90625 81.097656 72.808594 81.5625 72.703125 82.027344 C 71.792969 82.117188 70.878906 82.089844 69.96875 82.039062 C 69.859375 82.554688 69.746094 83.066406 69.632812 83.578125 C 70.550781 83.554688 71.464844 83.523438 72.386719 83.574219 C 72.292969 84.050781 72.191406 84.527344 72.082031 84.996094 C 71.167969 85.027344 70.257812 85.003906 69.347656 85 C 69.214844 85.597656 69.085938 86.203125 68.9375 86.800781 C 70.015625 86.761719 71.089844 86.691406 72.171875 86.742188 C 72.070312 87.21875 71.964844 87.683594 71.851562 88.15625 C 70.578125 88.207031 69.304688 88.128906 68.035156 88.21875 C 67.511719 88.253906 66.992188 88.199219 66.476562 88.125 C 66.914062 85.972656 67.371094 83.820312 67.8125 81.667969 Z M 67.8125 81.667969 "/>
<path style=" stroke:none;fill-rule:nonzero;fill:rgb(93.72549%,25.490196%,21.960784%);fill-opacity:1;" d="M 91.242188 80.628906 C 93.359375 80.597656 95.476562 80.554688 97.597656 80.601562 C 97.515625 81.128906 97.421875 81.660156 97.304688 82.179688 C 96.601562 82.199219 95.902344 82.191406 95.203125 82.191406 C 94.789062 84.183594 94.367188 86.171875 93.949219 88.164062 C 93.210938 88.277344 92.464844 88.277344 91.722656 88.171875 C 92.09375 86.164062 92.554688 84.175781 92.976562 82.179688 C 92.25 82.230469 91.523438 82.273438 90.800781 82.210938 C 90.9375 81.679688 91.082031 81.152344 91.242188 80.628906 Z M 91.242188 80.628906 "/>
<path style=" stroke:none;fill-rule:nonzero;fill:rgb(93.72549%,25.490196%,21.960784%);fill-opacity:1;" d="M 98.894531 82.097656 C 99.019531 81.609375 99.050781 81.066406 99.355469 80.644531 C 100.027344 80.5625 100.710938 80.621094 101.386719 80.644531 C 100.988281 83.164062 100.359375 85.644531 99.859375 88.144531 C 99.125 88.304688 98.371094 88.285156 97.628906 88.195312 C 97.957031 86.144531 98.515625 84.140625 98.894531 82.097656 Z M 98.894531 82.097656 "/>
</g>
</svg>
