<svg xmlns:svg="http://www.w3.org/2000/svg" xmlns="http://www.w3.org/2000/svg" version="1.1" x="0px" y="0px" width="2500" height="568" viewBox="-0.006 0 213.233 68.175" enable-background="new 0 0 213.223 68.18" xml:space="preserve">
  <g transform="translate(-452.8326,-183.5491)"/>
  <path fill="#E11F2C" class="svg-dia" d="M213.216 45.814c0.003-12.75-0.002-25.5 0.003-38.25 -0.204-3.35-2.752-6.426-6.001-7.242 -1.342-0.436-2.764-0.296-4.148-0.312 -9.571 0-19.134 0-28.696 0 -3.156 0.034-6.315-0.07-9.467 0.053l0.007 0.007c-0.561 0.051-1.104 0.136-1.643 0.208 -5.806 0.842-11.154 4.303-14.361 9.205 -0.9 1.604-1.863 3.203-2.386 4.979 -0.923 2.911-1.138 5.996-1.088 9.033 -0.003 11.83-0.003 23.662 0.002 35.491 0.06 1.408 0.208 2.849 0.753 4.164 0.605 1.408 1.652 2.595 2.892 3.481 1.823 1.334 4.19 1.582 6.384 1.535 11.617-0.004 23.232 0.003 34.85 0 2.633 0.064 5.28-0.199 7.837-0.848 2.88-0.873 5.587-2.333 7.854-4.313 2.337-1.896 4.037-4.446 5.389-7.106 0.928-1.825 1.368-3.846 1.688-5.856C213.301 48.642 213.204 47.225 213.216 45.814zM206.488 19.678c-0.005 9.065 0.007 18.131-0.007 27.198 0.018 2.9-0.846 5.782-2.465 8.189 -2.151 3.007-5.404 5.255-9.051 5.982 -2.652 0.47-5.37 0.308-8.059 0.333 -11.56-0.002-23.141-0.002-34.714-0.002 0.045-12.983-0.011-25.963 0.027-38.951 0.198-1.731 0.07-3.506 0.608-5.185 0.98-3.149 2.9-6.12 5.725-7.905 1.213-0.788 2.481-1.549 3.903-1.892h-0.008c1.547-0.374 3.106-0.714 4.692-0.652 13.09-0.006 26.182 0.02 39.271-0.013C206.574 11.078 206.447 15.379 206.488 19.678zM47.139 31.427c-0.187-1.326-0.438-2.635-0.731-3.927 -0.696-3.036-2.125-5.858-3.824-8.46 -3.298-4.924-8.303-8.681-13.957-10.466 -2.125-0.781-4.378-1.07-6.613-1.309C14.686 7.219 7.378 7.321 0.066 7.219L0.065 7.226c-0.068 0.662-0.059 1.359-0.071 2.046 0.018 17.38-0.021 34.761 0.02 52.141 6.766-0.032 13.534 0.011 20.3-0.023 1.38-0.209 2.784-0.103 4.152-0.392 5.013-0.756 9.822-2.951 13.588-6.362 1.545-1.143 2.682-2.707 3.893-4.175 0.999-1.316 1.772-2.787 2.559-4.232 1.668-3.646 2.837-7.633 2.669-11.675C47.173 33.518 47.231 32.464 47.139 31.427zM30.538 43.07c-1.211 1.282-2.512 2.517-4.074 3.36 -1.71 0.875-3.591 1.447-5.512 1.574 -2.635 0.004-5.272 0.025-7.907 0.009 -0.019-9.176-0.017-18.358 0-27.536h0.008c3.213 0.076 6.459-0.28 9.636 0.332 4.579 0.896 8.521 4.301 10.193 8.64 0.576 1.711 0.981 3.511 0.912 5.325C33.603 37.785 32.551 40.79 30.538 43.07zM165.756 13.921c2.329-0.421 4.777 0.34 6.511 1.921 1.072 1.105 1.922 2.499 2.177 4.037 0.078 0.918 0.051 1.854 0 2.771 -0.445 2.956-2.924 5.459-5.842 6.035 -1.33 0.033-2.726 0.219-3.996-0.278 -1.326-0.426-2.493-1.295-3.402-2.336 -0.931-1.375-1.705-2.992-1.6-4.694 -0.03-1.97 0.682-3.988 2.104-5.378 1.131-1.056 2.544-1.787 4.057-2.078H165.756zM185.387 15.15c0.215-0.396 0.616-0.687 1.086-0.642 4.17-0.007 8.33 0 12.513 0 -0.431 1.066-1.199 1.932-1.783 2.909 -4.512 6.889-9.252 13.625-13.701 20.555 -3.037 4.291-5.869 8.715-8.798 13.073 -0.544 0.82-1.146 1.615-1.552 2.519 -4.481 0.11-8.969 0.017-13.451 0.047 0.838-1.503 1.863-2.888 2.867-4.282 2.197-3.392 4.426-6.764 6.719-10.092 1.254-1.795 2.334-3.708 3.681-5.438 1.7-2.686 3.608-5.233 5.262-7.949 1.201-1.911 2.579-3.704 3.741-5.643 1.171-1.66 2.341-3.326 3.412-5.058H185.387zM63.476 17.366c1.451-0.598 2.822-1.4 4.348-1.807 -0.047 15.266-0.023 30.534-0.011 45.8 -4.619 0.06-9.243 0.056-13.863 0.005 -0.019-13.243-0.006-26.486-0.006-39.728C57.148 20.281 60.296 18.785 63.476 17.366L63.476 17.366zM118.305 30.469c-0.815-1.8-1.812-3.5-2.975-5.081 -3.774-5.104-9.866-8.352-16.167-8.845 -2.06-0.033-4.138-0.11-6.171 0.272l-0.006-0.002c-6.324 1.24-12.207 5.134-15.431 10.793 -1.576 2.442-2.358 5.285-2.926 8.105 -0.607 4.018-0.202 8.191 1.216 12.006 0.862 2.497 2.373 4.705 4.016 6.749 1.213 1.556 2.818 2.734 4.375 3.921 3.868 2.577 8.566 3.99 13.225 3.693 2.509-0.03 4.936-0.825 7.199-1.859 1.883-0.97 3.508-2.342 5.102-3.717 0.894 0.589 1.91 0.935 2.875 1.381 2.438 1.232 4.862 2.508 7.409 3.507 0.061-7.175 0-14.349 0.027-21.522C120.107 36.657 119.514 33.444 118.305 30.469zM102.924 47.24c-1.728 1.179-3.81 1.876-5.905 1.916 -1.836-0.157-3.697-0.633-5.219-1.704 -1.717-1.207-3.151-2.907-3.808-4.93 -1.022-2.57-0.676-5.571 0.68-7.951 1.357-2.539 3.925-4.324 6.72-4.922l-0.008-0.007c2.465-0.333 5.116 0.023 7.153 1.501 2.058 1.269 3.481 3.396 4.134 5.701C107.778 40.641 106.019 44.898 102.924 47.24zM191.26 39.325c1.822-0.06 3.774 0.391 5.134 1.683 0.669 0.663 1.411 1.275 1.87 2.108 1.14 2.108 1.156 4.709 0.255 6.91 -0.785 1.657-2.24 2.922-3.889 3.689 -2.041 0.81-4.45 0.795-6.398-0.264 -1.696-0.903-3.186-2.407-3.68-4.305 -0.605-1.96-0.433-4.159 0.581-5.955 1.132-2.29 3.632-3.685 6.131-3.867H191.26z"/>
</svg>
