<svg xmlns="http://www.w3.org/2000/svg" version="1.1" x="0px" y="0px" width="2500" height="568" viewBox="0.003 0 457.888 109.708" enable-background="new 0 0 457.848 109.684" xml:space="preserve">
  <path fill="#007A4E" class="#svg-elcorteingles" d="M427.4 25.5l6.1 10.3 -24.2 14.7L401.9 41 427.4 25.5zM444.252 48.363c-12.092-1.293-32.385 16.844-42.316 19.004 11.66-27.205-35.41-29.365-24.61 4.8 -4.752 2.159-9.07 0.428-10.8-2.16 10.363-13.818 15.117-35.84-2.157-38.865 -10.793-2.156-21.591 16.408-13.82 38 -2.153 1.291-6.907 2.588-6.907 2.588l0.436-15.979h-11.658c-3.457 8.209-12.092 12.957-13.391 11.2 -1.729-6.052 6.479-12.959 22.022-13.394V41.021c-20.295 0.867-33.252 11.23-35.409 23.32 -0.863 17.7 15.1 16.8 25 9.9v3.884c-19.434 6.914-19.434 28.936-3.453 30.227 15.111 1.3 17.271-12.951 15.976-21.588l13.817-9.5c4.318 8.601 24.199 7.8 33.699 2.158 3.889 3 13.801 1.7 16.846-0.861l27.636-16.412c8.635-5.184 10.8 3 8.2 5.615 -4.316 4.318-12.093 6.479-13.816 6.906l-0.432 12.5C460.665 85.9 467.1 48.4 444.3 48.363H444.252zM331.982 93.705c0 1.729-1.297 2.596-2.594 2.6 -1.297 0-2.59-1.299-2.156-3.022 0-1.731 1.293-3.028 2.593-2.595C331.118 90.7 332.4 92 332 93.705H331.982zM359.377 50.1c0.166-0.7 0.323-1.5 0.023-0.004h-0.023V50.1zM363.504 51.389c-0.436 3.885-2.158 6.477-3.021 6.5 -1.297 0-1.729-3.449-1.297-6.904 0 0 0.027-0.129 0.068-0.313 -0.021 0.104-0.041 0.195-0.068 0.3 0.861-3.89 2.16-6.914 3.453-6.479 0.865 0.008 1.262 3.008 0.861 6.896H363.504zM390.275 66.1c-1.729 0-3.024-2.15-3.024-4.318 0.437-2.587 1.731-4.312 3.024-4.312 1.726 0 3 1.7 3 4.3C393.297 64.3 392 66.1 390.3 66.066L390.275 66.1zM278.004 51.389c-4.32-10.367-13.389-11.66-19-11.229L256.411 0h-11.226l3.023 45.8c-17.275 16.843-19.434 62.611-1.299 63.908 19.432-1.726 13.818-46.205 13.387-50.088 -2.156-9.072 7.773-5.183 8.6 1.3l0.434 20.729 11.659 0.429 0.431-17.703c0.438-7.342 9.069-7.342 9.1 0.436l-0.433 14.246h12.522l0.435-13.816C301.322 40.6 282.8 44.5 278 51.389H278.004zM250.366 79.023c-0.429 6.912-1.726 12.521-3.021 12.101 -0.863 0-1.728-5.615-1.296-12.096 0 0 0.002-0.043 0.007-0.109 0.02-0.277 0.032-0.529 0.047-0.764 0.01-0.137 0.02-0.277 0.026-0.428 0.019-0.268 0.033-0.508 0.045-0.709 0-0.01 0.002-0.018 0.002-0.026 0.017-0.267 0.029-0.472 0.039-0.63 0.007-0.105 0.015-0.197 0.017-0.266 0.014-0.193 0.012-0.164 0 0 -0.002 0.062-0.008 0.152-0.017 0.266 -0.012 0.178-0.022 0.395-0.039 0.63 0 0.011-0.002 0.019-0.002 0 -0.016 0.229-0.028 0.471-0.045 0.709 -0.008 0.133-0.017 0.276-0.026 0.428 -0.021 0.336-0.037 0.613-0.047 0.8 -0.002 0.039-0.005 0.071-0.007 0.11 0.433-6.905 1.728-12.521 2.593-12.521 1.295 0.383 2.157 5.583 1.758 12.506H250.366zM207.184 66.066c35.841-14.678 3.457-47.062-13.817-13.383h-3.455l2.593-25.906h-10.798l-1.727 24.2h-3.888v10.787h2.591l-0.431 17.711 10.796 0.428v-13.4c0-1.727 3.022-2.588 4.7 2.16 5.183 16 23.3 16.8 30.7 9.899V66.032C218.843 70 211.5 72.5 207.2 66.066H207.184zM205.459 55.705c-0.866-0.434-0.435-2.588 0.861-4.316 0 0 0.02-0.033 0.052-0.088 0.088-0.146 0.162-0.27 0.225-0.375 0.089-0.148 0.178-0.295 0.236-0.391 0.089-0.148 0.07-0.119 0 0 -0.046 0.074-0.123 0.201-0.236 0.391 -0.086 0.146-0.172 0.285-0.225 0.375 -0.019 0.031-0.033 0.055-0.052 0.1 1.298-2.161 3.454-3.023 4.32-2.161 0.862 0.399 0.4 2.594-0.866 4.317 -1.292 2.144-3.474 3.043-4.274 2.148H205.459zM164.435 54.414c-3.022-4.754-7.772-6.482-12.955-6.482 -12.523-25.908-36.273 5.613-15.113 12.5 5.181 0.9 2.2 6.479-2.59 6.043 -5.183-0.437-5.616-6.906-5.183-11.229 -0.434-8.636-15.978-4.313-13.818 7.8 -35.84 26.775-47.502-46.203-0.864-34.109l0.432-12.523c-65.204-9.934-51.387 93.699 7.3 57.399 14.682 9.5 28.5-2.596 28.5-11.227 4.318-0.436 6.5 1.7 6.5 4.748V78.16h9.5l0.432-11.225c0-3.893 2.591-5.189 6.045-5.617l0.433-10.797c-3.869-0.821-8.154 1.778-8.654 3.893H164.435zM139.821 51.82c-1.294 0-2.159-0.859-2.159-2.158 0-0.861 0.865-1.729 2.159-1.729 0.863 0 1.7 0.9 1.7 1.729C141.548 51 140.7 51.8 139.8 51.82H139.821zM55.618 65.639c24.612-52.25-24.184-54.408-16.41-1.725 -8.205 4.748-17.273 5.607-20.729-0.438 28.5 2.2 15.546-34.543-4.319-20.297 -3.886-12.09 8.203-22.453 22.889-15.543L37.48 13.8C18.479 5.182-12.18 20.7 5.1 55.273c-4.75 23.801 21.2 32.4 40.6 19.434 3.455 3.899 12.1 6.5 20.3 1.297V65.205C61.23 69.1 53.5 68.2 55.6 65.639H55.618zM21.503 49.66c1.726 0 2.6 1.3 2.6 3.021 0 1.295-0.865 2.59-2.591 2.601 -1.297 0-2.593-1.296-2.593-3.021C18.911 51 20.2 49.7 21.5 49.66H21.503zM52.594 48.799c-0.864 3.885-2.163 6.906-3.454 6.9 -0.865-0.434-1.728-3.453-0.865-7.773 0 0 0.051-0.459 0.101-0.904 -0.027 0.242-0.059 0.527-0.101 0.9 0.431-3.887 1.727-6.91 3.023-6.91C52.594 41.5 53 44.9 52.6 48.799H52.594z"/>
</svg>
