<svg xmlns="http://www.w3.org/2000/svg" version="1.1" x="0" y="0" width="2500" height="568" viewBox="0 0 334 89.96" enable-background="new 0 0 334 90" xml:space="preserve">
	<rect fill="#FFFFFF" x="13.3" y="5.5" class="svg-eroski-bg" width="307.3" height="74.9"/>
	<path fill="#E41B13" class="svg-eroski" d="M153.89 31.56c-7.66 0-12.91 5.75-12.91 13.26 0 7.5 5.2 13.3 12.9 13.3 7.65 0 12.46-5.74 12.46-13.26C166.35 37.3 161.3 31.6 153.9 31.56H153.89z"/>
	<path fill="#E41B13" class="svg-eroski" d="M321.02 0H13.23C6.02 0 0 5.5 0 12.99v63.66c0 1.3 0.3 2.2 0.7 3.5 0 0.4 0.3 1.4 0.7 1.81 1.96 4.4 6.6 8 11.8 8h307.79C328.46 90 334 83.7 334 76.65V12.99C334 5.5 328.5 0 321 0H321.02zM63 27.14C63 28 62.5 29 61.6 29H43c-0.89 0-2 0.4-2 1.23v7.52C41 38.6 42.1 39 43 39h16.83c0.89 0 1.3 0.9 0.9 1.81l-3.5 6.97C56.99 48.7 55.9 49 55 49H42.97C42.11 49 41 50.1 41 51.01v7.52C41 59.4 42.1 60 43 60h18.6c0.85 0 1.4 0.7 1.4 1.62v7.51C63 70 62.5 70 61.6 70H27.22C26.36 70 26 70 26 69.14V24.92c0-0.88-0.59-2.22-0.8-3.1l-0.94-1.64C23.8 19.3 24.2 19 25 19h36.53C62.45 19 63 19.6 63 20.51V27.14zM125.89 70H111.45c-1.1 0-2.18-0.22-2.62-1.1 0 0-8.97-10.9-14.21-17.9H91v18.14C91 70 90.2 70 89.4 70H76.89C76.01 70 75 70 75 69.14V24.92c0-0.88-0.04-2.22-0.48-3.1l-0.78-1.77c-0.44-0.88 0.05-1.32 0.92-1.32 0 0 13.59-0.45 15.99-0.45 5.25 0 11.6 0.4 15.3 1.33 5.68 1.3 12.9 5.3 12.9 14.6 0 5.76-3.49 10.17-5.89 11.51 -1.54 1.33-3.29 2.21-4.38 2.65 1.09 1.3 17.7 21 17.7 21C126.98 69.8 126.8 70 125.9 70H125.89zM153.68 71.35c-15.3 0-27.36-11.49-27.36-26.53 0-15.04 12.06-26.97 28.02-26.97 15.53 0 26.9 11.5 26.9 26.52C181.24 59.9 169.4 71.3 153.7 71.35H153.68zM223 32.44c0 0.89-0.21 0.89-1.09 0.44 0 0-1.18-0.88-3.15-2.19 -1.31-0.45-1.92-0.9-3.01-0.9 -1.09-0.42-2.39-0.86-4.13-0.86 -4.38 0-7.43 1.77-7.43 4.86 0 1.8 1.1 2.7 2.4 4 1.52 1.3 4.4 3.1 7.9 5.3 5.03 4 8.3 8 8.3 13.71 0 8.83-8.96 14.8-21.44 14.8 -4.82 0-10.06-0.56-13.13-1.56h-0.44c-0.43-1-0.8-1.75-0.8-2.63v-9.3c0-0.88 0.63-1.31 1.27-0.44l0.85 0.4c0.89 0.5 2.2 1.3 3.3 1.78 1.98 0.4 4.4 0.9 7.2 0.89 3.93 0 7-1.33 7-4.42 0-1.77-1.76-3.54-4.16-5.31 -2.4-1.32-4.6-3.09-6.57-4.42 -3.94-3.1-7.44-7.08-7.44-12.82 0-7.95 6.56-15.48 21.88-15.48 3.06 0 7.2 0.4 9.4 0.89 1.54 0.4 2 0.9 2 0.9 0.88 0.4 1.3 1.3 1.3 2.21L223 32.44 223 32.44zM284.92 20.19l-19.24 21.15c-0.66 0.44-0.66 1.3 0 2.2l17.94 25.4c0.44 0.9 0.2 1.08-0.66 1.08H268.09c-0.88 0-1.97-0.22-2.41-1.1L249.9 46.9c-0.44-0.45-0.9-0.34-0.9 0.55v21.66c0 0.88-0.6 0.87-1.48 0.87h-12.47C234.18 70 234 70 234 69.14V24.92c0-0.88-0.45-2.22-0.89-3.1l-1-1.64C231.68 19.3 231.8 19 232.4 19h2.41 2.85 9.84c0.88 0 1.5 0.6 1.5 1.51V39.07c0 0.9 0.7 0.9 1.1 0.44l17.96-19.32C268.51 19.3 269.8 19 270.5 19h14c0.87 0 1.1 0.3 0.4 1.19H284.92zM308 69.14c0 0.88-0.97 0.87-1.85 0.87h-12.46c-0.88 0-1.69 0.01-1.69-0.86V24.92c0-0.88-0.15-2.22-0.57-3.1l-0.84-1.64C290.13 19.31 290.39 19 291.05 19h2.4 2.85 9.84c0.88 0 1.9 0.6 1.9 1.51v48.63H308z"/>
	<path fill="#E41B13" class="svg-eroski" d="M93.95 29H91v14h2.08c2.41 0 4.59-0.2 6.12-1.07 1.54-0.89 3.51-2.93 3.51-6.03C102.7 31.5 99.4 29 93.9 29H93.95z"/>
</svg>
