<svg xmlns="http://www.w3.org/2000/svg" version="1.1" x="0" y="0" width="2500" height="568" viewBox="0 -1.76 364.62 74.64" enable-background="new 0 0 364.584 74.637" xml:space="preserve">
  <path fill="#005597" class="svg-hipercor" d="M0 0h18.84v24.47h11.51V0h18.84v70.83H30.35V41.39H18.84v29.44H0V0L0 0zM54.14 0h19.13v70.83H54.14V0L54.14 0zM78.47 0h22.5c15.61 0 24.7 7.5 24.7 24.36 0 15.03-10.55 22.58-22.38 22.58h-5.94v23.89h-18.88V0L78.47 0zM97.38 31.2h1.74c4.47 0 7.81-2.7 7.81-8.15 0-5.51-3.44-8.7-7.81-8.7h-1.74V31.2L97.38 31.2zM128.32 0h34.89v15.34H146.79v11.61h16.41v15.44H146.79V54.89h16.41v15.94h-34.88V0L128.32 0zM167.56 0h21.29c15.29 0 23.6 8.6 23.6 23.87 0 10.1-3.65 16.04-10.12 18.13l14 28.8h-19.32L186.03 42.97v27.85h-18.47L167.56 0 167.56 0zM186.03 31.2h1.74c4.29 0 7.69-2.85 7.69-8.51 0-4.82-3.63-8.41-7.69-8.41h-1.74V31.2L186.03 31.2zM305.44 62.01c-5.05 6.83-12.4 10.7-20.01 10.7 -7.61 0-14.96-3.77-20.08-10.8 -5.05-6.83-7.08-15.85-7.08-26.35 0-10.5 2.03-19.61 7.08-26.45 5.12-7.03 12.47-10.7 20.08-10.7 7.61 0 15 3.7 20.1 10.7 4.98 6.8 7.1 15.9 7.1 26.45S310.49 55.1 305.4 62c0.04 0 5.1-6.9 0 0.01H305.44zM292.76 35.56c0-5.79-0.16-19.44-7.34-19.44 -7.07 0-7.34 13.72-7.34 19.44 0 5.6 0.3 18.7 7.3 18.74C292.53 54.3 292.8 41.2 292.8 35.6c-0.04 0 0 5.6 0-0.04H292.76zM235.45 35.56c0.61 15.3 6.6 17.8 12.3 17.8 5.35 0 8.4-2.9 8.83-3.43V71.03c0 0-3.56 1.85-8.73 1.85 -9.59 0-17.43-2.81-23.96-10.67 -5.54-6.67-8.36-16.15-8.36-26.65 0-10.5 2.38-19.98 7.92-26.65 6.54-7.87 15.71-10.67 24.41-10.67 3.76 0 6.8 0.7 8.7 1.85v19.91c-0.43-0.53-3.48-3.43-8.83-3.43C242.03 16.6 235.2 19.4 235.4 35.56c0.05 0.04-0.2-16.16 0 0H235.45zM315.84 0h21.29c15.29 0 23.6 6.4 23.6 22.53 0 10.1-3.8 16.11-10.11 19.47l14 28.8h-19.32L334.31 42.97v27.85h-18.47V0L315.84 0zM334.31 31.2h1.74c4.29 0 7.7-2.85 7.7-8.51 0-4.82-3.63-8.41-7.7-8.41h-1.74V31.2L334.31 31.2z"/>
</svg>
