<?xml version="1.0" encoding="iso-8859-1"?><!DOCTYPE svg PUBLIC "-//W3C//DTD SVG 1.1//EN" "http://www.w3.org/Graphics/SVG/1.1/DTD/svg11.dtd"><svg version="1.1" id="Layer_1" xmlns="http://www.w3.org/2000/svg" xmlns:xlink="http://www.w3.org/1999/xlink" x="0px" y="0px"
	 width="192.756px" height="192.756px" viewBox="0 0 192.756 192.756" style="enable-background:new 0 0 192.756 192.756;"
	 xml:space="preserve"><a xlink:href="http://logo.webnhanh.com/logo/lidl-supermarkets.svg.html" target="_blank"><g><polygon style="fill-rule:evenodd;clip-rule:evenodd;fill:#FFFFFF;" points="0,0 192.756,0 192.756,192.756 0,192.756 0,0 	"/><polygon style="fill-rule:evenodd;clip-rule:evenodd;fill:#CC2229;stroke:#CC2229;stroke-width:0.3699;stroke-miterlimit:2.6131;" points="
		47.898,107.65 70.082,85.103 88.983,103.91 98.682,94.297 98.889,102.371 67.361,133.797 63.313,129.777 68.477,124.918 
		53.756,109.852 48.318,115.096 47.898,107.65 	"/><polygon style="fill-rule:evenodd;clip-rule:evenodd;fill:#1E71B8;stroke:#1E71B8;stroke-width:0.3699;stroke-miterlimit:2.6131;" points="
		144.057,78.707 175.445,78.707 175.445,85.768 170.492,85.768 170.492,110.936 189.852,100.344 189.922,118.836 143.881,118.836 
		143.881,111.529 149.045,111.529 149.078,85.768 144.092,85.768 144.057,78.707 	"/><path style="fill-rule:evenodd;clip-rule:evenodd;fill:#CC2229;stroke:#CC2229;stroke-width:0.3699;stroke-miterlimit:2.6131;" d="
		M67.361,83.461c6.696,0,12.205-5.523,12.205-12.271c0-6.745-5.509-12.232-12.205-12.232c-6.766,0-12.244,5.487-12.244,12.232
		C55.117,77.938,60.595,83.461,67.361,83.461L67.361,83.461z"/><polygon style="fill-rule:evenodd;clip-rule:evenodd;fill:#1E71B8;stroke:#1E71B8;stroke-width:0.3699;stroke-miterlimit:2.6131;" points="
		3.01,79.163 34.367,79.163 34.367,86.222 29.446,86.222 29.446,111.389 48.806,100.799 48.839,119.289 2.834,119.289 
		2.834,112.018 7.962,112.018 7.999,86.222 2.977,86.222 3.01,79.163 	"/><path style="fill-rule:evenodd;clip-rule:evenodd;fill:#1E71B8;" d="M125.293,118.766H92.612v-7.096h5.544l-0.105-25.657h-5.544
		v-6.957h32.958c9.557-0.034,17.16,6.642,17.266,19.783C142.662,112.406,134.221,118.766,125.293,118.766L125.293,118.766z
		 M118.768,106.355c3.805-0.033,6.979-2.201,7.012-8.037c0-5.664-3.277-8.145-6.939-8.145L118.768,106.355L118.768,106.355z"/></g></a></svg>
